# Blender v2.79 (sub 0) OBJ File: ''
# www.blender.org
mtllib mon.mtl
o Cube
v 0.948806 -0.081476 -0.213364
v 0.948806 -0.081476 0.213364
v 0.616624 -0.081476 0.213364
v 0.616624 -0.081476 -0.213364
v 0.948806 1.528616 -0.213364
v 0.948806 1.528616 0.213364
v 0.616624 1.528616 0.213364
v 0.616624 1.528616 -0.213364
v 0.948806 1.800545 -0.213364
v 0.948806 1.800545 0.213364
v 0.616624 1.800545 -0.213364
v 0.616624 1.800545 0.213364
v 0.616624 1.664581 -0.213364
v 0.948806 1.664581 -0.213364
v 0.948806 1.664581 0.213364
v 0.616624 1.664581 0.213364
v 0.948806 1.800545 -0.297039
v 0.616624 1.800545 -0.297039
v 0.948806 1.800545 0.291312
v 0.616624 1.800545 0.291311
v 0.616624 1.664581 -0.297039
v 0.948806 1.664581 0.291312
v 0.948806 1.664581 -0.297039
v 0.616624 1.664581 0.291311
v 0.782715 -0.081476 -0.213364
v 0.782715 -0.081476 0.213364
v 0.782715 1.528616 -0.213364
v 0.782715 1.528616 0.213364
v 0.782715 1.800545 -0.213364
v 0.782715 1.800545 0.213364
v 0.782715 1.664581 0.213364
v 0.782715 1.664581 -0.213364
v 0.782715 1.800545 -0.297039
v 0.782715 1.800545 0.291311
v 0.782715 1.664581 0.291311
v 0.782715 1.664581 -0.297039
v 0.782715 -0.081476 0.277931
v 0.616624 -0.081476 0.277931
v 0.616624 1.528616 0.277931
v 0.782715 1.528616 0.277931
v 0.782715 -0.081476 -0.280362
v 0.616624 -0.081476 -0.280362
v 0.616624 1.528616 -0.280362
v 0.782715 1.528616 -0.280362
v 0.616624 1.664581 0.403829
v 0.616624 1.528616 0.403829
v -0.948806 -0.081476 -0.213364
v -0.948806 -0.081476 0.213364
v -0.616624 -0.081476 0.213364
v -0.616624 -0.081476 -0.213364
v -0.948806 1.528616 -0.213364
v -0.948806 1.528616 0.213364
v -0.616624 1.528616 0.213364
v -0.616624 1.528616 -0.213364
v -0.948806 1.800545 -0.213364
v -0.948806 1.800545 0.213364
v -0.616624 1.800545 -0.213364
v -0.616624 1.800545 0.213364
v 0.000000 1.528616 0.213364
v 0.000000 1.528616 -0.213364
v 0.000000 1.800545 0.213364
v 0.000000 1.800545 -0.213364
v -0.616624 1.664581 -0.213364
v -0.948806 1.664581 -0.213364
v -0.948806 1.664581 0.213364
v -0.616624 1.664581 0.213364
v 0.000000 1.664581 -0.213364
v 0.000000 1.664581 0.213364
v -0.948806 1.800545 -0.297039
v -0.616624 1.800545 -0.297039
v -0.948806 1.800545 0.291312
v -0.616624 1.800545 0.291311
v -0.616624 1.664581 -0.297039
v -0.948806 1.664581 0.291312
v 0.000000 1.664581 -0.297040
v 0.000000 1.800545 -0.297040
v 0.000000 1.800545 0.291311
v -0.948806 1.664581 -0.297039
v -0.616624 1.664581 0.291311
v 0.000000 1.664581 0.291311
v -0.782715 -0.081476 -0.213364
v -0.782715 -0.081476 0.213364
v -0.782715 1.528616 -0.213364
v -0.782715 1.528616 0.213364
v -0.782715 1.800545 -0.213364
v -0.782715 1.800545 0.213364
v -0.782715 1.664581 0.213364
v -0.782715 1.664581 -0.213364
v -0.782715 1.800545 -0.297039
v -0.782715 1.800545 0.291311
v -0.782715 1.664581 0.291311
v -0.782715 1.664581 -0.297039
v -0.782715 -0.081476 0.277931
v -0.616624 -0.081476 0.277931
v -0.616624 1.528616 0.277931
v -0.782715 1.528616 0.277931
v -0.782715 -0.081476 -0.280362
v -0.616624 -0.081476 -0.280362
v -0.616624 1.528616 -0.280362
v -0.782715 1.528616 -0.280362
v -0.616624 1.664581 0.403829
v -0.616624 1.528616 0.403829
v 0.000000 1.664581 0.403829
v 0.000000 1.528616 0.403829
vn 0.0000 -1.0000 0.0000
vn 1.0000 0.0000 0.0000
vn -1.0000 0.0000 -0.0000
vn 0.0000 0.0000 -1.0000
vn -0.0000 0.0000 1.0000
vn 0.0000 1.0000 0.0000
usemtl mon_01
s off
f 25//1 26//1 3//1 4//1
f 1//2 5//2 6//2 2//2
f 26//2 28//2 40//2 37//2
f 3//3 7//3 8//3 4//3
f 13//4 8//4 60//4 67//4
f 8//1 7//1 59//1 60//1
f 6//2 5//2 14//2 15//2
f 28//5 6//5 15//5 31//5
f 27//4 8//4 13//4 32//4
f 31//1 15//1 22//1 35//1
f 68//1 16//1 24//1 80//1
f 32//1 13//1 21//1 36//1
f 13//1 67//1 75//1 21//1
f 14//1 32//1 36//1 23//1
f 16//1 31//1 35//1 24//1
f 5//4 27//4 32//4 14//4
f 7//5 28//5 31//5 16//5
f 5//4 1//4 25//4 27//4
f 2//5 6//5 28//5 26//5
f 1//1 2//1 26//1 25//1
f 3//1 26//1 37//1 38//1
f 25//1 4//1 42//1 41//1
f 59//1 7//1 46//1 104//1
f 81//1 50//1 49//1 82//1
f 47//3 48//3 52//3 51//3
f 82//3 93//3 96//3 84//3
f 49//2 50//2 54//2 53//2
f 63//4 67//4 60//4 54//4
f 54//1 60//1 59//1 53//1
f 52//3 65//3 64//3 51//3
f 84//5 87//5 65//5 52//5
f 83//4 88//4 63//4 54//4
f 87//1 91//1 74//1 65//1
f 68//1 80//1 79//1 66//1
f 88//1 92//1 73//1 63//1
f 63//1 73//1 75//1 67//1
f 64//1 78//1 92//1 88//1
f 66//1 79//1 91//1 87//1
f 51//4 64//4 88//4 83//4
f 53//5 66//5 87//5 84//5
f 51//4 83//4 81//4 47//4
f 48//5 82//5 84//5 52//5
f 47//1 81//1 82//1 48//1
f 49//1 94//1 93//1 82//1
f 81//1 97//1 98//1 50//1
f 59//1 104//1 102//1 53//1
usemtl mon_02
f 29//6 9//6 17//6 33//6
f 8//6 27//6 44//6 43//6
f 29//6 11//6 12//6 30//6
f 12//6 61//6 77//6 20//6
f 15//2 14//2 9//2 10//2
f 16//6 68//6 103//6 45//6
f 9//2 14//2 23//2 17//2
f 12//6 11//6 62//6 61//6
f 62//6 11//6 18//6 76//6
f 36//4 21//4 18//4 33//4
f 35//5 22//5 19//5 34//5
f 24//5 20//5 77//5 80//5
f 18//4 21//4 75//4 76//4
f 30//6 12//6 20//6 34//6
f 15//2 10//2 19//2 22//2
f 10//6 30//6 34//6 19//6
f 24//5 35//5 34//5 20//5
f 23//4 36//4 33//4 17//4
f 9//6 29//6 30//6 10//6
f 11//6 29//6 33//6 18//6
f 37//5 40//5 39//5 38//5
f 28//6 7//6 39//6 40//6
f 7//3 3//3 38//3 39//3
f 44//4 41//4 42//4 43//4
f 4//3 8//3 43//3 42//3
f 27//2 25//2 41//2 44//2
f 46//5 45//5 103//5 104//5
f 7//2 16//2 45//2 46//2
f 85//6 89//6 69//6 55//6
f 54//6 99//6 100//6 83//6
f 85//6 86//6 58//6 57//6
f 58//6 72//6 77//6 61//6
f 65//3 56//3 55//3 64//3
f 66//6 101//6 103//6 68//6
f 55//3 69//3 78//3 64//3
f 58//6 61//6 62//6 57//6
f 62//6 76//6 70//6 57//6
f 92//4 89//4 70//4 73//4
f 91//5 90//5 71//5 74//5
f 79//5 80//5 77//5 72//5
f 70//4 76//4 75//4 73//4
f 86//6 90//6 72//6 58//6
f 65//3 74//3 71//3 56//3
f 56//6 71//6 90//6 86//6
f 79//5 72//5 90//5 91//5
f 78//4 69//4 89//4 92//4
f 55//6 56//6 86//6 85//6
f 57//6 70//6 89//6 85//6
f 93//5 94//5 95//5 96//5
f 84//6 96//6 95//6 53//6
f 53//2 95//2 94//2 49//2
f 100//4 99//4 98//4 97//4
f 50//2 98//2 99//2 54//2
f 83//3 100//3 97//3 81//3
f 102//5 104//5 103//5 101//5
f 53//3 102//3 101//3 66//3
