# Blender v2.79 (sub 0) OBJ File: ''
# www.blender.org
mtllib windingHashira.mtl
o Cube
v 1.000000 -2.460655 -1.000000
v 1.000000 -2.460655 1.000000
v -1.000000 -2.460655 1.000000
v -1.000000 -2.460655 -1.000000
v 1.414143 -0.789303 0.014166
v -0.014166 -0.789303 1.414143
v -1.414143 -0.789303 -0.014166
v 0.014166 -0.789303 -1.414143
v 1.004635 1.299369 0.995344
v -0.995343 1.299369 1.004635
v 0.995343 1.299369 -1.004635
v -1.004635 1.299369 -0.995343
v -0.032602 3.380859 1.413838
v -1.413838 3.380859 -0.032601
v 1.413838 3.380859 0.032601
v 0.032601 3.380859 -1.413837
vn 0.3873 0.0000 -0.9220
vn 0.9249 0.0000 -0.3802
vn 0.9203 0.0000 0.3912
vn 0.0000 -1.0000 0.0000
vn -0.3802 0.0000 -0.9249
vn -0.9220 -0.0000 -0.3873
vn 0.3912 0.0000 -0.9203
vn -0.3873 -0.0000 0.9220
vn -0.9249 0.0000 0.3802
vn 0.0000 1.0000 0.0000
vn -0.9203 0.0000 -0.3912
vn 0.9220 0.0000 0.3873
vn 0.3802 -0.0000 0.9249
vn -0.3912 -0.0000 0.9203
usemtl Material.001
s off
f 5//1 1//1 4//1 8//1
f 5//2 8//2 11//2 9//2
f 9//3 11//3 15//3 13//3
usemtl Material.002
f 1//4 2//4 3//4 4//4
f 8//5 7//5 12//5 11//5
f 3//6 7//6 8//6 4//6
f 11//7 12//7 16//7 15//7
usemtl Material.003
f 2//8 6//8 7//8 3//8
f 7//9 6//9 10//9 12//9
f 13//10 15//10 16//10 14//10
f 12//11 10//11 14//11 16//11
usemtl Material.004
f 1//12 5//12 6//12 2//12
f 6//13 5//13 9//13 10//13
f 10//14 9//14 13//14 14//14
